<svg width="40" height="40" viewBox="0 0 40 40" fill="none" xmlns="http://www.w3.org/2000/svg">
<circle cx="20" cy="20" r="20" fill="url(#paint0_linear_72_117)"/>
<path d="M24.0384 10.6923C24.0384 10.3251 24.1802 9.9729 24.4327 9.71324C24.6851 9.45357 25.0275 9.30769 25.3846 9.30769H28.0769C28.4339 9.30769 28.7763 9.45357 29.0287 9.71324C29.2812 9.9729 29.423 10.3251 29.423 10.6923V27.3077H30.0961C30.2746 27.3077 30.4458 27.3806 30.572 27.5105C30.6983 27.6403 30.7692 27.8164 30.7692 28C30.7692 28.1836 30.6983 28.3597 30.572 28.4895C30.4458 28.6194 30.2746 28.6923 30.0961 28.6923H9.90379C9.72528 28.6923 9.55408 28.6194 9.42785 28.4895C9.30163 28.3597 9.23071 28.1836 9.23071 28C9.23071 27.8164 9.30163 27.6403 9.42785 27.5105C9.55408 27.3806 9.72528 27.3077 9.90379 27.3077H10.5769V23.1538C10.5769 22.7866 10.7187 22.4344 10.9711 22.1748C11.2236 21.9151 11.566 21.7692 11.923 21.7692H14.6153C14.9724 21.7692 15.3148 21.9151 15.5672 22.1748C15.8197 22.4344 15.9615 22.7866 15.9615 23.1538V27.3077H17.3076V17.6154C17.3076 17.2482 17.4495 16.896 17.7019 16.6363C17.9544 16.3766 18.2968 16.2308 18.6538 16.2308H21.3461C21.7031 16.2308 22.0455 16.3766 22.298 16.6363C22.5504 16.896 22.6923 17.2482 22.6923 17.6154V27.3077H24.0384V10.6923Z" fill="white"/>
<defs>
<linearGradient id="paint0_linear_72_117" x1="20" y1="0" x2="20" y2="40" gradientUnits="userSpaceOnUse">
<stop stop-color="#9400D3"/>
<stop offset="1" stop-color="#3D0063"/>
</linearGradient>
</defs>
</svg>
